PathFileType	4	(X/Y/Z)	/Users/niels/Desktop/University/Third Semester/Perception and Action/Exam/Gymnastics Motion Tracking/Code for Gym Tracking/Analyzed Data/Webcam_Backflip/id2001_2_baseline_Sports2D/id2001_2_baseline_Sports2D_px_person00.trc
DataRate	CameraRate	NumFrames	NumMarkers	Units	OrigDataRate	OrigDataStartFrame	OrigNumFrames
29.888475836431226	29.888475836431226	10	22	m	29.888475836431226	201	269
Frame#	Time	Hip			RHip			RKnee			RAnkle			RBigToe			RSmallToe			RHeel			LHip			LKnee			LAnkle			LBigToe			LSmallToe			LHeel			Neck			Head			Nose			RShoulder			RElbow			RWrist			LShoulder			LElbow			LWrist		
		X1	Y1	Z1	X2	Y2	Z2	X3	Y3	Z3	X4	Y4	Z4	X5	Y5	Z5	X6	Y6	Z6	X7	Y7	Z7	X8	Y8	Z8	X9	Y9	Z9	X10	Y10	Z10	X11	Y11	Z11	X12	Y12	Z12	X13	Y13	Z13	X14	Y14	Z14	X15	Y15	Z15	X16	Y16	Z16	X17	Y17	Z17	X18	Y18	Z18	X19	Y19	Z19	X20	Y20	Z20	X21	Y21	Z21	X22	Y22	Z22
201	6.7250000000000005	0.9431099927073946	-0.6924707388573175	0.0	0.9259540736171774	-0.6909022161294769	0.0	1.3396692439868416	-0.7310525437884898	0.0	1.352753535111309	-1.0757985706927564	0.0	1.560239289638056	-1.2051650294562912	0.0	1.4639615506331654	-1.112063596904723	0.0	1.330333853848811	-1.1003779873370687	0.0	0.9510565132990886	-0.7186368317160208	0.0	0.9692726215358458	-1.0753923511905026	0.0	1.3194880014097132	-1.0548465997124803	0.0	1.5866678467792643	-1.1980506592264268	0.0	1.4258959960937496	-1.08961279296875	0.0	1.1985128177895181	-1.09014587373676	0.0	1.0009553285387403	-0.2436724544186365	0.0	1.0688195317135942	-0.04707485578288941	0.0	1.0696168525533754	-0.14894180103304844	0.0	0.9112947198214734	-0.28025620157869496	0.0	0.9255581656854402	-0.48415048471154	0.0	1.158829606210589	-0.4251352278535214	0.0	1.0506064995564655	-0.33300480260916643	0.0	1.067160186675664	-0.5317029449396926	0.0	1.1757430830967135	-0.47591421449123744	0.0
202	6.758457711442786	0.9434184744713291	-0.6923227504367274	0.0	0.9273418960262552	-0.690835865143456	0.0	1.3404194368562796	-0.7446336916770522	0.0	1.3482038697094594	-1.0783283026640158	0.0	1.5761130949598232	-1.2054003849946235	0.0	1.4545884395986282	-1.1144712964526835	0.0	1.3292401933281153	-1.1011578432389062	0.0	0.9483883004667031	-0.7185363168770488	0.0	0.9688379249478768	-1.0746293551977932	0.0	1.3011848154790173	-1.0552006502305402	0.0	1.5866678468320052	-1.1980506592732971	0.0	1.4258959960937496	-1.08961279296875	0.0	1.198512818306677	-1.0901458739258347	0.0	1.0012804311732963	-0.24390129143929667	0.0	1.0700234428843214	-0.04751718954445646	0.0	1.070376299942972	-0.149651218623113	0.0	0.9119901760498619	-0.27958759526047694	0.0	0.9206598473329138	-0.4860003634839858	0.0	1.1545981063264301	-0.43275874051709146	0.0	1.0503783093876526	-0.33251671736936583	0.0	1.0621788847615756	-0.5294237472144085	0.0	1.171933905988594	-0.472106352977498	0.0
203	6.791915422885573	0.9440559283398853	-0.6928811993931833	0.0	0.9294636169531693	-0.6916385647363158	0.0	1.3409840618252478	-0.7668442582707639	0.0	1.3410759464187523	-1.0821104141854938	0.0	1.5934221693729633	-1.2044026190985089	0.0	1.451104354987289	-1.1159462502765691	0.0	1.3277700284893106	-1.1020555045973914	0.0	0.9459068681861961	-0.7190948112775852	0.0	0.9684180459876615	-1.073834401834258	0.0	1.2739095536225222	-1.0565577202152463	0.0	1.586667846812678	-1.1980506592673874	0.0	1.4258959960937496	-1.08961279296875	0.0	1.1985128170451125	-1.090145873926999	0.0	1.0007275473576502	-0.24381102671207694	0.0	1.0690020979780412	-0.04731056684101936	0.0	1.0693629161952314	-0.14955890519953532	0.0	0.9123281454287	-0.2789729748686593	0.0	0.9160552130939567	-0.48789406663268664	0.0	1.152387334521273	-0.4452749848226579	0.0	1.0495953665978253	-0.331652232462091	0.0	1.055048533414575	-0.5261907095344444	0.0	1.1684181905191664	-0.47081822659271394	0.0
204	6.825373134328359	0.945285504761799	-0.6941151962185033	0.0	0.9323960827941508	-0.6932214222325646	0.0	1.340358590651361	-0.7966378249148895	0.0	1.3323180468692895	-1.086502073017041	0.0	1.6072456647754134	-1.2031405809986533	0.0	1.4509913494215192	-1.1166381915182835	0.0	1.326347870875526	-1.102790850830423	0.0	0.9445335164204093	-0.7200378540483151	0.0	0.9680706462662233	-1.0730013702231327	0.0	1.2408973644951478	-1.0582649597197331	0.0	1.586667846768816	-1.1980506592412847	0.0	1.4258959960937496	-1.08961279296875	0.0	1.1985128141611996	-1.0901458737942846	0.0	0.999499328453523	-0.24336148965878393	0.0	1.0661611173905357	-0.04655509475988924	0.0	1.0670140877207774	-0.14869718328089063	0.0	0.9123677288752773	-0.27854901407444965	0.0	0.9121366255399478	-0.48989824321934616	0.0	1.1520274786652234	-0.4623251991995288	0.0	1.0483674329064991	-0.3306652769467556	0.0	1.0468045785941908	-0.5228095630908229	0.0	1.1652778805231787	-0.47467903821591995	0.0
205	6.858830845771145	0.9472972584383804	-0.6959799972344787	0.0	0.9361047037725133	-0.6954610485197948	0.0	1.3372537509648748	-0.8324420045767288	0.0	1.32339284469771	-1.0907755594018813	0.0	1.6158854248778785	-1.2021053080004076	0.0	1.4523004219586289	-1.116820203570848	0.0	1.325273251266616	-1.1032492365217277	0.0	0.9450030594318743	-0.7211465880939951	0.0	0.9678223117040707	-1.0720850764680956	0.0	1.2047867766166898	-1.0599327129782845	0.0	1.5866678467266608	-1.1980506592138893	0.0	1.4258959960937496	-1.08961279296875	0.0	1.1985128100139346	-1.0901458736105376	0.0	0.9979258599275521	-0.24256155154582384	0.0	1.0620210500410832	-0.045384491977278944	0.0	1.0639483641144196	-0.14718268785673658	0.0	0.912353041176835	-0.2783017656807107	0.0	0.9094572075510545	-0.4921687590155722	0.0	1.1532423010787034	-0.4835947829971331	0.0	1.0469071025484697	-0.32975904021850155	0.0	1.038891877043738	-0.5203869701462795	0.0	1.1626719975774777	-0.48600680302046717	0.0
206	6.892288557213931	0.949990222084798	-0.6983322360101866	0.0	0.9402315304479701	-0.6982331284035355	0.0	1.3304676972389982	-0.8721665576631717	0.0	1.3158237131506867	-1.0943025990775124	0.0	1.6200541412282117	-1.2014429824930852	0.0	1.4538433152230992	-1.1167426053477887	0.0	1.3246258488311957	-1.1034634665407133	0.0	0.9475671977206285	-0.7222428076684213	0.0	0.9676594230161578	-1.070950552114475	0.0	1.167183533698841	-1.0613427192613576	0.0	1.5866678466965847	-1.1980506591933522	0.0	1.4258959960937496	-1.08961279296875	0.0	1.1985128056418959	-1.0901458735035183	0.0	0.9963574755176963	-0.24145166201249518	0.0	1.0571550626239283	-0.043911282874657225	0.0	1.0607790068620513	-0.14513590886605704	0.0	0.9126392344377848	-0.2781371610590096	0.0	0.9085787554368606	-0.4949770689831901	0.0	1.1554886525724937	-0.5088168661935112	0.0	1.0454386789975134	-0.32895463538006914	0.0	1.0326177556347393	-0.5198148659768602	0.0	1.1606401743524002	-0.5057957643785989	0.0
207	6.9257462686567175	0.9530247651091214	-0.7009995616873245	0.0	0.944187379906434	-0.7014719166458219	0.0	1.3190328531683588	-0.9132283890213307	0.0	1.310534963650023	-1.0967368217159776	0.0	1.6212523959597964	-1.2011133197000226	0.0	1.4550664249065464	-1.1165787772256284	0.0	1.3243294851621168	-1.1035191049295574	0.0	0.9518845065142928	-0.7232234137955169	0.0	0.96762639751056	-1.069489081528583	0.0	1.1288619497224563	-1.0623481637165628	0.0	1.58666784667961	-1.1980506591811875	0.0	1.4258959960937496	-1.08961279296875	0.0	1.1985128034030885	-1.0901458736670417	0.0	0.9950624995751969	-0.2401160203708695	0.0	1.0521477305359013	-0.04217361573725674	0.0	1.057937715050159	-0.14263497621431248	0.0	0.9135414193564197	-0.27801101634458136	0.0	0.9099401961408519	-0.49871973824076027	0.0	1.1579671246746432	-0.5377344317094714	0.0	1.0440894388431008	-0.3280415568115991	0.0	1.028644834639597	-0.521286379337488	0.0	1.1589294092975448	-0.5333621442850986	0.0
208	6.959203980099503	0.9560729832237187	-0.703923981374861	0.0	0.947459324365736	-0.7052301347112279	0.0	1.3021409761451856	-0.9526778240999645	0.0	1.307566985069886	-1.0980919907576263	0.0	1.6209011249836467	-1.2010099305830217	0.0	1.4558275066219288	-1.1164235575467198	0.0	1.3242579960266512	-1.1034942640290017	0.0	0.9571207128742341	-0.724190046103912	0.0	0.9677966994564168	-1.0677616204759177	0.0	1.0903028321463846	-1.0628128853012935	0.0	1.5866678466726238	-1.1980506591757611	0.0	1.4258959960937496	-1.08961279296875	0.0	1.1985128075380824	-1.0901458743627612	0.0	0.9941975135619405	-0.23868910873845425	0.0	1.0475458915463247	-0.04019630961353604	0.0	1.0556287395679564	-0.13976583284576075	0.0	0.9151989703120366	-0.2780137129937313	0.0	0.9138007255010805	-0.5038303055835981	0.0	1.1597459174539597	-0.5700142982784284	0.0	1.0429735054503226	-0.3267934376237862	0.0	1.0272111965931479	-0.5243044210556724	0.0	1.1571610655886533	-0.5667643005092876	0.0
209	6.992661691542289	0.958914508361641	-0.7072429793264399	0.0	0.9498765832092211	-0.7096783631069491	0.0	1.279208673359307	-0.9876362585196813	0.0	1.3063578476666375	-1.0986360715545962	0.0	1.6200049876386748	-1.2010278441659241	0.0	1.4561925065514767	-1.1163137729907577	0.0	1.3242986247348842	-1.1034429037481706	0.0	0.9620354308065067	-0.7255575974820996	0.0	0.9680107644391687	-1.0659042456249552	0.0	1.0523839767838916	-1.0626209954631582	0.0	1.586667846671646	-1.1980506591745808	0.0	1.4258959960937496	-1.08961279296875	0.0	1.1985128241909155	-1.0901458758682552	0.0	0.9938229407243	-0.2372718840604513	0.0	1.0438691847950525	-0.0380711177953703	0.0	1.0539500998750453	-0.13667483625919677	0.0	0.9175959761134053	-0.27831401937173916	0.0	0.9201390271886072	-0.5105945276899114	0.0	1.1596657455140547	-0.6050824318979152	0.0	1.042228558871917	-0.3251155251438219	0.0	1.0285298803283502	-0.5281273457253667	0.0	1.1549357390691484	-0.6036233719603159	0.0
210	7.026119402985075	0.9614431503174601	-0.7111938916428586	0.0	0.951717322109543	-0.7150323757554025	0.0	1.2503642297149307	-1.0159555698956346	0.0	1.3062010134908286	-1.0986985293512561	0.0	1.6191257253460938	-1.2010909982346358	0.0	1.4562955186059867	-1.1162523663153223	0.0	1.3243745733856047	-1.103394454312023	0.0	0.9654132894590775	-0.7279343969053563	0.0	0.9678373489114964	-1.0639754691766417	0.0	1.0170775478355967	-1.0617800733061273	0.0	1.586667846673412	-1.1980506591754714	0.0	1.4258959960937496	-1.08961279296875	0.0	1.198512860138034	-1.0901458783298497	0.0	0.9939716363480581	-0.23583575123552547	0.0	1.0415790723752234	-0.03592067822382735	0.0	1.053043503032126	-0.1335456751244178	0.0	0.92067813380755	-0.27903734270110825	0.0	0.928468218505239	-0.5189928988930451	0.0	1.1560572249665573	-0.6418663065463067	0.0	1.0418644136378663	-0.3228519106538697	0.0	1.0323687163232187	-0.5320720853578051	0.0	1.1515037267605588	-0.6414321173584391	0.0
